<svg width="40" height="71" viewBox="0 0 40 71" fill="none" xmlns="http://www.w3.org/2000/svg">
<path d="M39.4961 18.8191C39.0246 8.3459 30.3688 0 19.759 0C9.75956 0 1.49623 7.41012 0.185325 17.0318C0.0872119 17.7337 0.0299791 18.4464 0.0109015 19.17C0.00272537 19.3523 0 19.5372 0 19.7222V51.2778C0 52.1564 0.0572328 53.0215 0.168973 53.8702C0.261636 54.5693 0.389728 55.2576 0.553251 55.9295C1.13376 58.3343 2.16122 60.5703 3.54026 62.5398C7.10777 67.654 13.0409 71 19.759 71C22.5634 71 25.2288 70.4206 27.6435 69.3651C29.8292 68.4184 31.8078 67.0828 33.4976 65.4533C33.8437 65.1187 34.1816 64.7705 34.5032 64.4087C34.5196 64.3924 34.5386 64.3706 34.555 64.3516C35.0864 63.7558 35.5797 63.1274 36.0322 62.4691C36.4192 61.9115 36.7762 61.3348 37.1032 60.7363C37.899 59.2891 38.515 57.7331 38.9265 56.0927C39.0791 55.4807 39.2045 54.8577 39.2999 54.2266C39.4443 53.2636 39.5206 52.2816 39.5206 51.2805V19.7249C39.5179 19.4203 39.5125 19.1183 39.4961 18.8191ZM19.759 1.97222C29.4667 1.97222 37.3867 9.7795 37.5366 19.4339C37.0242 19.6161 36.5145 19.812 36.0131 20.0187L29.6384 15.7778L26.1445 19.2652L19.759 11.8333L13.7004 18.8898L9.87948 13.8056L2.30294 16.3246C3.89456 8.1582 11.1168 1.97222 19.759 1.97222ZM21.5904 32.8205C21.3369 32.4261 21.0535 32.1105 20.7483 31.8929H20.7455C20.4376 31.6725 20.1078 31.5556 19.759 31.5556C19.7099 31.5556 19.6636 31.5583 19.6172 31.5637C19.3229 31.5909 19.0395 31.7052 18.7751 31.8929H18.7724C18.4726 32.1051 18.1919 32.4125 17.9439 32.796C17.9384 32.8042 17.933 32.8123 17.9275 32.8205C17.9166 32.8015 17.9057 32.7824 17.8948 32.7607C16.8946 30.9979 15.7145 29.3494 14.3872 27.8369C13.6514 26.9963 12.8692 26.202 12.0434 25.4539C11.7845 25.22 11.5229 24.9887 11.2585 24.7629L14.916 20.5057L19.759 14.8638L24.7409 20.6662L28.2594 24.7629C27.995 24.986 27.7334 25.2172 27.4772 25.4539C25.1443 27.573 23.152 30.0594 21.5904 32.8205ZM27.4309 20.7695L29.8892 18.3158L33.9145 20.9926C32.4728 21.7298 31.0992 22.5813 29.8101 23.5361L27.4309 20.7695ZM2.0195 18.4981L9.1518 16.126L12.3814 20.4241L9.70778 23.5388C7.37213 21.8114 4.77213 20.4213 1.97862 19.4366C1.98407 19.121 1.9977 18.8109 2.0195 18.4981ZM1.9759 21.5339C4.28429 22.4153 6.45096 23.5959 8.41868 25.035C8.49771 25.0921 8.57675 25.152 8.65578 25.2091H8.65851C9.3453 25.7232 10.0076 26.2673 10.6453 26.844C11.5011 27.6166 12.3078 28.4408 13.0627 29.3167C14.2482 30.6905 15.303 32.1867 16.2078 33.7862C16.4885 34.284 16.7556 34.79 17.0036 35.3014C16.8701 35.9706 16.7965 36.7051 16.7965 37.4722C16.7965 39.5805 17.347 41.433 18.181 42.4803C18.3663 42.7115 18.5625 42.9047 18.7724 43.0516V46.7321H15.799C15.5564 37.7932 9.89855 30.2036 1.9759 27.1187V21.5339ZM1.9759 29.2542C8.9801 32.3036 13.5942 39.0772 13.8231 46.7321H9.86857C9.65872 41.1446 6.53817 36.2998 1.9759 33.6638V29.2542ZM1.9759 36.0005C5.51888 38.457 7.70463 42.3878 7.88995 46.7349H1.9759V36.0005ZM31.8623 64.2672C30.1999 65.8124 28.243 67.0447 26.0873 67.8662C24.1195 68.617 21.9883 69.0278 19.759 69.0278C14.6625 69.0278 10.0539 66.8733 6.81071 63.4321C7.62832 62.9615 8.44593 62.5072 9.29897 62.1318C11.2394 61.2858 13.1881 61.468 14.9732 62.6677C18.2518 64.8711 21.4841 64.8358 24.7791 62.6704C26.9294 61.2559 29.1642 61.2912 31.3908 62.6024C31.8378 62.8663 32.2929 63.1193 32.7617 63.375C32.4701 63.6824 32.173 63.9816 31.8623 64.2672ZM35.4762 59.5774C35.0374 60.4044 34.5332 61.196 33.9718 61.9359C33.4131 61.6829 32.8734 61.3783 32.3474 61.0736C29.5757 59.4795 26.7386 59.3 24.046 61.041C21.2116 62.8744 18.6197 62.9642 15.7472 61.079C13.0927 59.3353 10.2201 59.4251 7.44572 61.0464C6.94425 61.3429 6.45096 61.6666 5.92496 61.9142C5.82412 61.9631 5.72873 62.0067 5.63062 62.0475C4.34697 60.3745 3.35493 58.4675 2.73082 56.4028C2.81258 56.4083 2.89435 56.4137 2.97338 56.4164C4.51594 56.4572 6.25473 55.9948 7.59834 55.2168C10.3183 53.6444 12.782 53.4731 15.4665 55.2249C16.7147 56.041 17.9847 56.4926 19.2575 56.5905C20.969 56.7238 22.6833 56.2233 24.3676 55.127C24.5801 54.9883 24.79 54.8631 25.0053 54.7462C27.0739 53.6118 29.2051 53.4975 31.2873 54.8631C31.4181 54.9475 31.5516 55.0318 31.6825 55.1107V55.1134C33.3722 56.139 35.0537 56.6286 36.7435 56.5361C36.4192 57.5916 35.9913 58.609 35.4762 59.5774ZM37.542 51.2778C37.542 52.4149 37.4357 53.5275 37.2286 54.6047C35.607 54.6999 33.9609 54.3327 32.5518 53.4649C31.8678 53.0433 31.1837 52.7141 30.4996 52.4802C28.4774 51.7838 26.4579 51.9225 24.4602 52.9888C24.1904 53.133 23.9206 53.2962 23.6535 53.4731C21.9665 54.5884 20.3422 54.9665 18.6933 54.6292C17.8021 54.4469 16.9028 54.0552 15.9816 53.454C13.0682 51.5525 10.0157 51.5498 7.08869 53.5084C5.48618 54.583 3.90001 54.9856 2.30839 54.6863C2.09036 53.5846 1.9759 52.4421 1.9759 51.2778V48.7044H37.542V51.2778ZM37.542 46.7321H31.628C31.8133 42.3878 33.999 38.4543 37.542 35.9978V46.7321ZM37.542 33.6665C32.9797 36.2998 29.8592 41.1446 29.6493 46.7349H25.6948C25.9237 39.0772 30.5378 32.3036 37.542 29.2569V33.6665ZM37.542 27.1215C29.6221 30.2063 23.9615 37.7959 23.7189 46.7349H20.7483V43.0543C21.9011 42.2409 22.7242 40.0511 22.7242 37.4749C22.7242 36.7078 22.6506 35.9761 22.517 35.3041C22.716 34.8988 22.9204 34.4989 23.1384 34.1018C23.1956 33.9957 23.2529 33.8923 23.3128 33.7916C24.7927 31.172 26.6759 28.8298 28.8726 26.8494C29.5757 26.2129 30.3116 25.6144 31.0747 25.0567C31.0829 25.0513 31.0911 25.0459 31.0992 25.0404C32.5709 23.9632 34.1516 23.0328 35.8196 22.263C36.3837 22.0018 36.9588 21.7625 37.542 21.5367V27.1215Z" fill="white"/>
</svg>
